<svg width="53" height="46" viewBox="0 0 53 46" fill="none" xmlns="http://www.w3.org/2000/svg">
<path d="M26.695 7.34685L27.1105 7.96941L27.5265 7.34721C31.8957 0.812843 38.1282 -0.594723 43.2491 1.31347C48.3967 3.2316 52.5 8.52819 52.5 15.5874C52.5 18.1744 51.0989 21.2023 48.8626 24.3726C46.6374 27.5272 43.6376 30.7507 40.5526 33.7157C37.4699 36.6786 34.3147 39.3712 31.7862 41.4653C30.8778 42.2176 30.052 42.8913 29.3386 43.4733C29.0587 43.7017 28.7961 43.9159 28.5525 44.1153C27.9504 44.6082 27.455 45.018 27.1093 45.3221C26.754 45.0152 26.2397 44.6032 25.6142 44.1097C25.2645 43.8338 24.8777 43.5307 24.4576 43.2015C23.7964 42.6833 23.0529 42.1006 22.2428 41.4585C19.6 39.3639 16.2916 36.6708 13.0552 33.7075C9.8164 30.7419 6.66328 27.5179 4.32347 24.363C1.97078 21.1907 0.5 18.1665 0.5 15.5874C0.5 8.49232 4.89332 3.18768 10.3586 1.27528C15.8043 -0.630285 22.3413 0.823488 26.695 7.34685Z" fill="white" stroke="#FF3B3B"/>
</svg>
